<mxfile host="Electron" agent="Mozilla/5.0 (X11; Linux x86_64) AppleWebKit/537.36 (KHTML, like Gecko) draw.io/24.7.8 Chrome/128.0.6613.36 Electron/32.0.1 Safari/537.36" version="24.7.8">
  <diagram id="C5RBs43oDa-KdzZeNtuy" name="Page-1">
    <mxGraphModel dx="360" dy="1432" grid="1" gridSize="10" guides="1" tooltips="1" connect="1" arrows="1" fold="1" page="1" pageScale="1" pageWidth="827" pageHeight="1169" math="0" shadow="0">
      <root>
        <mxCell id="WIyWlLk6GJQsqaUBKTNV-0" />
        <mxCell id="WIyWlLk6GJQsqaUBKTNV-1" parent="WIyWlLk6GJQsqaUBKTNV-0" />
        <mxCell id="WIyWlLk6GJQsqaUBKTNV-3" value="Running Clock" style="rounded=1;whiteSpace=wrap;html=1;fontSize=12;glass=0;strokeWidth=1;shadow=0;fillColor=#d5e8d4;strokeColor=none;" parent="WIyWlLk6GJQsqaUBKTNV-1" vertex="1">
          <mxGeometry x="140" y="100" width="120" height="40" as="geometry" />
        </mxCell>
        <mxCell id="-QeOqYEX76VZ67S0Sh9e-6" value="" style="rounded=0;html=1;jettySize=auto;orthogonalLoop=1;fontSize=11;endArrow=block;endFill=0;endSize=8;strokeWidth=1;shadow=0;labelBackgroundColor=none;exitX=0.5;exitY=1;exitDx=0;exitDy=0;" edge="1" parent="WIyWlLk6GJQsqaUBKTNV-1" source="WIyWlLk6GJQsqaUBKTNV-3">
          <mxGeometry y="50" relative="1" as="geometry">
            <mxPoint as="offset" />
            <mxPoint x="199.71" y="169.97" as="sourcePoint" />
            <mxPoint x="200" y="240" as="targetPoint" />
          </mxGeometry>
        </mxCell>
        <mxCell id="WIyWlLk6GJQsqaUBKTNV-7" value="Start Second Clock" style="rounded=1;whiteSpace=wrap;html=1;fontSize=12;glass=0;strokeWidth=1;shadow=0;fillColor=#f8cecc;strokeColor=#b85450;" parent="WIyWlLk6GJQsqaUBKTNV-1" vertex="1">
          <mxGeometry x="280" y="170" width="120" height="40" as="geometry" />
        </mxCell>
        <mxCell id="-QeOqYEX76VZ67S0Sh9e-1" value="" style="edgeStyle=orthogonalEdgeStyle;rounded=0;html=1;jettySize=auto;orthogonalLoop=1;fontSize=11;endArrow=block;endFill=0;endSize=8;strokeWidth=1;shadow=0;labelBackgroundColor=none;entryX=1;entryY=0.5;entryDx=0;entryDy=0;exitX=0.458;exitY=-0.039;exitDx=0;exitDy=0;exitPerimeter=0;movable=1;resizable=1;rotatable=1;deletable=1;editable=1;locked=0;connectable=1;" edge="1" parent="WIyWlLk6GJQsqaUBKTNV-1" source="WIyWlLk6GJQsqaUBKTNV-7" target="WIyWlLk6GJQsqaUBKTNV-3">
          <mxGeometry x="-0.3767" y="-35" relative="1" as="geometry">
            <mxPoint as="offset" />
            <mxPoint x="360" y="190" as="sourcePoint" />
            <mxPoint x="450" y="90" as="targetPoint" />
            <Array as="points">
              <mxPoint x="335" y="120" />
            </Array>
          </mxGeometry>
        </mxCell>
        <mxCell id="-QeOqYEX76VZ67S0Sh9e-10" value="Stop" style="text;html=1;align=center;verticalAlign=middle;whiteSpace=wrap;rounded=0;" vertex="1" parent="WIyWlLk6GJQsqaUBKTNV-1">
          <mxGeometry x="120" y="170" width="60" height="30" as="geometry" />
        </mxCell>
        <mxCell id="-QeOqYEX76VZ67S0Sh9e-11" value="Stop" style="text;html=1;align=center;verticalAlign=middle;whiteSpace=wrap;rounded=0;" vertex="1" parent="WIyWlLk6GJQsqaUBKTNV-1">
          <mxGeometry x="330" y="105" width="60" height="30" as="geometry" />
        </mxCell>
        <mxCell id="-QeOqYEX76VZ67S0Sh9e-12" value="" style="edgeStyle=orthogonalEdgeStyle;rounded=0;html=1;jettySize=auto;orthogonalLoop=1;fontSize=11;endArrow=block;endFill=0;endSize=8;strokeWidth=1;shadow=0;labelBackgroundColor=none;movable=1;resizable=1;rotatable=1;deletable=1;editable=1;locked=0;connectable=1;exitX=0.75;exitY=1;exitDx=0;exitDy=0;" edge="1" parent="WIyWlLk6GJQsqaUBKTNV-1" source="WIyWlLk6GJQsqaUBKTNV-3">
          <mxGeometry x="-0.3767" y="-35" relative="1" as="geometry">
            <mxPoint as="offset" />
            <mxPoint x="230" y="150" as="sourcePoint" />
            <mxPoint x="280" y="190" as="targetPoint" />
            <Array as="points">
              <mxPoint x="230" y="190" />
            </Array>
          </mxGeometry>
        </mxCell>
        <mxCell id="-QeOqYEX76VZ67S0Sh9e-13" value="Pause" style="text;html=1;align=center;verticalAlign=middle;whiteSpace=wrap;rounded=0;" vertex="1" parent="WIyWlLk6GJQsqaUBKTNV-1">
          <mxGeometry x="230" y="140" width="60" height="30" as="geometry" />
        </mxCell>
        <mxCell id="-QeOqYEX76VZ67S0Sh9e-19" style="edgeStyle=orthogonalEdgeStyle;rounded=0;orthogonalLoop=1;jettySize=auto;html=1;exitX=0.5;exitY=1;exitDx=0;exitDy=0;" edge="1" parent="WIyWlLk6GJQsqaUBKTNV-1">
          <mxGeometry relative="1" as="geometry">
            <mxPoint x="200" y="340" as="sourcePoint" />
            <mxPoint x="200" y="340" as="targetPoint" />
          </mxGeometry>
        </mxCell>
        <mxCell id="-QeOqYEX76VZ67S0Sh9e-21" value="" style="rounded=0;html=1;jettySize=auto;orthogonalLoop=1;fontSize=11;endArrow=block;endFill=0;endSize=8;strokeWidth=1;shadow=0;labelBackgroundColor=none;" edge="1" parent="WIyWlLk6GJQsqaUBKTNV-1" source="-QeOqYEX76VZ67S0Sh9e-26">
          <mxGeometry y="50" relative="1" as="geometry">
            <mxPoint as="offset" />
            <mxPoint x="200" y="20" as="sourcePoint" />
            <mxPoint x="199.76" y="100" as="targetPoint" />
          </mxGeometry>
        </mxCell>
        <mxCell id="-QeOqYEX76VZ67S0Sh9e-30" value="" style="group" vertex="1" connectable="0" parent="WIyWlLk6GJQsqaUBKTNV-1">
          <mxGeometry x="140" y="-50" width="120" height="100" as="geometry" />
        </mxCell>
        <mxCell id="-QeOqYEX76VZ67S0Sh9e-26" value="" style="rounded=1;whiteSpace=wrap;html=1;fontSize=12;glass=0;strokeWidth=1;shadow=0;fillColor=#dae8fc;strokeColor=#6c8ebf;container=0;" vertex="1" parent="-QeOqYEX76VZ67S0Sh9e-30">
          <mxGeometry width="120" height="90.9090909090909" as="geometry" />
        </mxCell>
        <mxCell id="-QeOqYEX76VZ67S0Sh9e-27" value="&amp;nbsp;Stopwatch" style="text;html=1;align=center;verticalAlign=middle;whiteSpace=wrap;rounded=0;" vertex="1" parent="-QeOqYEX76VZ67S0Sh9e-30">
          <mxGeometry x="20" y="9.09090909090909" width="80" height="27.272727272727273" as="geometry" />
        </mxCell>
        <mxCell id="-QeOqYEX76VZ67S0Sh9e-29" style="edgeStyle=orthogonalEdgeStyle;rounded=0;orthogonalLoop=1;jettySize=auto;html=1;exitX=0.5;exitY=1;exitDx=0;exitDy=0;" edge="1" source="-QeOqYEX76VZ67S0Sh9e-26" target="-QeOqYEX76VZ67S0Sh9e-26" parent="-QeOqYEX76VZ67S0Sh9e-30">
          <mxGeometry relative="1" as="geometry" />
        </mxCell>
        <mxCell id="-QeOqYEX76VZ67S0Sh9e-28" value="&lt;span style=&quot;font-size: 10px;&quot;&gt;Enter task Name&lt;/span&gt;&lt;div&gt;&lt;span style=&quot;font-size: 10px;&quot;&gt;Set time&lt;/span&gt;&lt;/div&gt;" style="text;strokeColor=none;fillColor=none;align=left;verticalAlign=middle;spacingLeft=4;spacingRight=4;overflow=hidden;points=[[0,0.5],[1,0.5]];portConstraint=eastwest;rotatable=0;whiteSpace=wrap;html=1;" vertex="1" parent="-QeOqYEX76VZ67S0Sh9e-30">
          <mxGeometry x="30" y="36.36" width="80" height="50" as="geometry" />
        </mxCell>
        <mxCell id="-QeOqYEX76VZ67S0Sh9e-34" value="" style="group" vertex="1" connectable="0" parent="WIyWlLk6GJQsqaUBKTNV-1">
          <mxGeometry x="140" y="240" width="120" height="110" as="geometry" />
        </mxCell>
        <mxCell id="-QeOqYEX76VZ67S0Sh9e-35" value="" style="rounded=1;whiteSpace=wrap;html=1;fontSize=12;glass=0;strokeWidth=1;shadow=0;fillColor=#dae8fc;strokeColor=#6c8ebf;container=1;" vertex="1" parent="-QeOqYEX76VZ67S0Sh9e-34">
          <mxGeometry width="120" height="100" as="geometry" />
        </mxCell>
        <mxCell id="-QeOqYEX76VZ67S0Sh9e-36" value="Log the record" style="text;html=1;align=center;verticalAlign=middle;whiteSpace=wrap;rounded=0;" vertex="1" parent="-QeOqYEX76VZ67S0Sh9e-34">
          <mxGeometry x="20" y="10" width="80" height="30" as="geometry" />
        </mxCell>
        <mxCell id="-QeOqYEX76VZ67S0Sh9e-37" value="&lt;span style=&quot;font-size: 10px; background-color: initial;&quot;&gt;Task Name&lt;/span&gt;&lt;div&gt;&lt;span style=&quot;font-size: 10px;&quot;&gt;Time&amp;nbsp;&lt;br&gt;&lt;/span&gt;&lt;div style=&quot;font-size: 10px;&quot;&gt;Wasted Time&lt;/div&gt;&lt;/div&gt;&lt;div style=&quot;font-size: 10px;&quot;&gt;Save to json&lt;/div&gt;" style="text;strokeColor=none;fillColor=none;align=left;verticalAlign=middle;spacingLeft=4;spacingRight=4;overflow=hidden;points=[[0,0.5],[1,0.5]];portConstraint=eastwest;rotatable=0;whiteSpace=wrap;html=1;" vertex="1" parent="-QeOqYEX76VZ67S0Sh9e-34">
          <mxGeometry x="20" y="10" width="80" height="100" as="geometry" />
        </mxCell>
        <mxCell id="-QeOqYEX76VZ67S0Sh9e-38" style="edgeStyle=orthogonalEdgeStyle;rounded=0;orthogonalLoop=1;jettySize=auto;html=1;exitX=0.5;exitY=1;exitDx=0;exitDy=0;" edge="1" parent="-QeOqYEX76VZ67S0Sh9e-34" source="-QeOqYEX76VZ67S0Sh9e-35" target="-QeOqYEX76VZ67S0Sh9e-35">
          <mxGeometry relative="1" as="geometry" />
        </mxCell>
        <mxCell id="-QeOqYEX76VZ67S0Sh9e-42" value="Start" style="text;html=1;align=center;verticalAlign=middle;whiteSpace=wrap;rounded=0;" vertex="1" parent="WIyWlLk6GJQsqaUBKTNV-1">
          <mxGeometry x="200" y="50" width="60" height="30" as="geometry" />
        </mxCell>
      </root>
    </mxGraphModel>
  </diagram>
</mxfile>
